# xmcd
#
# Track frame offsets: 
#        150
#        16418
#        32034
#        44028
#        62041
#        83643
#        98012
#        111667
#        128812
#        152982
#        172756
#        186323
#
# Disc length: 2863 seconds
#
# Revision: 0
# Processed by: cddbd v1.5.2PL0 Copyright (c) Steve Scherf et al.
# Submitted via: ExactAudioCopy v1.0b3
#
DISCID=9e0b2d0c
DTITLE=Preston Shannon - Dust My Broom
DYEAR=2014
DGENRE=Blues
TTITLE0=Done Somebody Wrong
TTITLE1=It Hurts Me Too
TTITLE2=Look on Yonder Wall
TTITLE3=Rolling and Tumbling
TTITLE4=The Sky Is Crying
TTITLE5=You Gotta Move
TTITLE6=Dust My Broom
TTITLE7=Honky Tonk
TTITLE8=The Feeling Is Gone
TTITLE9=The Streets Will Love You to Death
TTITLE10=The Way I Love You
TTITLE11=Purple Rain
EXTD=
EXTT0=
EXTT1=
EXTT2=
EXTT3=
EXTT4=
EXTT5=
EXTT6=
EXTT7=
EXTT8=
EXTT9=
EXTT10=
EXTT11=
PLAYORDER=
